<?xml version="1.0" standalone="no"?>
<!DOCTYPE svg PUBLIC "-//W3C//DTD SVG 20010904//EN"
 "http://www.w3.org/TR/2001/REC-SVG-20010904/DTD/svg10.dtd">
<svg version="1.0" xmlns="http://www.w3.org/2000/svg"
 width="300.000000pt" height="300.000000pt" viewBox="0 0 300.000000 300.000000"
 preserveAspectRatio="xMidYMid meet">
<metadata>
Created by potrace 1.10, written by Peter Selinger 2001-2011
</metadata>
<g transform="translate(0.000000,300.000000) scale(0.100000,-0.100000)"
fill="#000000" stroke="none">
<path d="M1579 2411 c-13 -10 -30 -16 -37 -14 -7 3 -29 -5 -50 -17 -20 -12
-61 -29 -90 -36 -184 -48 -299 -166 -336 -344 -20 -95 -20 -134 0 -151 8 -7
27 -35 40 -61 32 -63 86 -123 141 -155 23 -13 43 -26 43 -28 0 -2 -12 -17 -26
-32 -41 -43 -85 -146 -91 -211 -6 -68 16 -127 53 -144 22 -10 24 -17 26 -127
l3 -116 264 -3 c167 -1 268 1 275 8 5 5 9 54 7 114 -2 95 -1 105 17 110 105
34 95 241 -18 370 -29 33 -30 35 -10 41 39 12 141 117 170 176 16 31 35 59 41
61 14 5 14 72 -1 147 -17 90 -57 165 -121 226 -55 53 -164 115 -201 115 -13 0
-18 8 -18 29 0 31 -22 61 -44 61 -7 0 -24 -8 -37 -19z m51 -54 c0 -31 4 -35
43 -47 158 -47 268 -165 297 -320 12 -64 13 -117 2 -122 -5 -1 -24 -31 -42
-66 -53 -101 -165 -185 -281 -211 -109 -26 -261 -5 -349 46 -73 43 -146 118
-171 178 -13 30 -30 55 -36 55 -17 0 -16 33 2 119 20 97 54 159 119 218 62 57
114 84 206 108 35 9 75 26 89 37 23 17 26 18 29 4 3 -14 8 -12 34 9 41 35 58
32 58 -8z m-266 -779 c48 -13 69 -28 41 -28 -21 0 -155 -127 -155 -146 0 -7
-6 -15 -12 -17 -7 -3 13 -6 44 -6 45 -1 63 -6 84 -24 52 -45 28 -120 -43 -133
-73 -14 -123 35 -123 120 0 54 37 159 52 150 6 -4 8 -3 5 3 -6 9 48 93 60 93
3 0 24 -5 47 -12z m404 -5 c2 -9 -10 -13 -41 -13 -25 0 -54 -3 -64 -7 -10 -3
-14 -2 -10 3 12 13 69 32 91 30 11 0 21 -7 24 -13z m12 -107 l0 -64 -37 -4
c-21 -3 -52 1 -70 9 -45 18 -93 17 -109 -4 -16 -23 -164 -35 -197 -16 -12 7
-40 12 -62 13 l-40 0 65 65 65 64 193 1 192 0 0 -64z m80 -69 c16 -65 6 -113
-33 -148 -34 -31 -56 -35 -106 -18 -59 21 -69 82 -20 123 25 21 41 26 87 27
40 0 51 3 37 8 -17 7 -20 16 -16 67 l3 59 18 -35 c10 -19 24 -56 30 -83z
m-183 -11 c4 -3 -2 -15 -11 -25 -10 -11 -19 -28 -20 -38 -4 -26 -29 -27 -57
-4 l-24 21 35 -5 35 -5 -32 15 c-45 21 -41 29 10 21 l42 -6 -35 21 -35 20 43
-5 c24 -2 46 -7 49 -10z m-120 -61 c11 -25 11 -25 -38 -25 -50 0 -109 22 -109
40 0 6 30 10 68 10 62 0 68 -2 79 -25z m-82 -52 c19 -13 19 -13 -2 -13 -32 0
-53 10 -53 26 0 15 22 10 55 -13z m182 -21 c7 -10 13 -20 13 -23 0 -3 -35 -5
-77 -4 -75 1 -78 3 -81 26 -3 24 -2 24 65 21 48 -3 71 -9 80 -20z m-187 -13
l35 -20 -40 6 c-45 8 -55 12 -55 26 0 14 22 10 60 -12z m-30 -24 c40 -21 38
-27 -7 -19 -46 8 -55 13 -48 25 8 13 21 11 55 -6z m-26 -35 c53 -12 60 -12 71
3 10 14 31 17 122 17 61 0 125 -3 142 -6 l31 -6 0 -94 0 -94 -249 0 -250 0 -3
96 c-2 53 -2 96 -1 97 6 7 88 -1 137 -13z"/>
<path d="M1335 2176 c-91 -41 -157 -140 -158 -236 -3 -209 159 -336 403 -317
149 12 246 71 295 181 53 116 38 219 -44 304 -82 85 -145 100 -231 57 -27 -14
-56 -25 -65 -25 -9 0 -38 11 -65 25 -55 28 -91 31 -135 11z m125 -41 c27 -14
63 -25 80 -25 17 0 48 11 68 25 50 34 94 32 152 -5 80 -52 120 -124 120 -218
0 -72 -25 -126 -80 -176 -75 -68 -117 -81 -260 -81 -143 0 -185 13 -259 81
-60 53 -83 105 -83 179 0 90 43 167 120 216 56 35 79 36 142 4z"/>
<path d="M1326 2030 c-35 -11 -94 -51 -101 -69 -4 -10 1 -9 20 3 49 32 118 66
135 66 9 0 25 -6 35 -14 18 -13 18 -14 -8 -9 -52 10 -79 -50 -36 -80 40 -29
86 7 73 58 -12 47 -54 64 -118 45z"/>
<path d="M1655 2014 c-14 -15 -25 -34 -25 -44 0 -20 20 -45 41 -53 24 -8 59
20 59 47 0 28 -15 43 -50 48 l-25 4 27 8 c22 6 41 1 94 -28 37 -21 68 -35 71
-33 8 9 -59 57 -95 67 -56 15 -71 13 -97 -16z"/>
<path d="M1510 1940 c-20 -7 -16 -8 22 -9 25 -1 55 -4 65 -7 14 -4 15 -4 3 4
-24 15 -63 20 -90 12z"/>
<path d="M1488 1899 c-43 -25 -9 -69 52 -69 59 0 90 36 58 68 -15 15 -86 15
-110 1z m100 -16 c5 -18 -23 -16 -39 3 -11 14 -10 15 11 12 13 -1 25 -9 28
-15z"/>
<path d="M1694 1891 c39 -13 65 -39 88 -86 l19 -40 -5 39 c-7 51 -40 83 -91
90 -34 5 -36 5 -11 -3z"/>
<path d="M1313 1868 c-11 -13 -25 -38 -32 -57 -13 -41 -13 -41 -2 -41 5 0 12
11 15 25 3 13 20 40 37 60 20 23 26 35 17 35 -8 0 -24 -10 -35 -22z"/>
<path d="M1360 1812 c0 -31 41 -45 107 -38 71 8 75 8 145 0 45 -5 63 -3 83 10
28 18 33 46 9 46 -10 0 -14 -6 -10 -15 7 -20 -33 -29 -92 -20 -26 4 -54 7 -62
7 -8 0 -36 -3 -62 -7 -58 -9 -102 0 -94 20 3 9 -1 15 -9 15 -8 0 -15 -8 -15
-18z"/>
<path d="M1377 1455 c-15 -43 -15 -45 4 -45 16 0 19 7 19 45 0 25 -2 45 -4 45
-2 0 -11 -20 -19 -45z"/>
<path d="M1330 1135 c0 -13 23 -15 145 -15 122 0 145 2 145 15 0 13 -23 15
-145 15 -122 0 -145 -2 -145 -15z"/>
<path d="M1021 2072 c-93 -125 -135 -247 -135 -397 0 -113 18 -193 65 -290 40
-83 128 -187 207 -242 l62 -45 0 39 c0 30 -7 46 -26 64 -77 71 -71 228 14 352
l31 44 -47 36 c-45 35 -77 74 -144 180 -29 46 -30 53 -25 120 3 40 14 99 25
132 11 33 19 61 18 62 -1 2 -22 -23 -45 -55z m27 -314 c29 -48 73 -105 97
-126 l45 -40 -37 -78 c-34 -71 -38 -87 -38 -159 0 -44 4 -92 9 -107 20 -66
-52 -1 -116 104 -61 99 -80 160 -85 278 -6 117 6 198 39 268 l22 47 5 -50 c5
-36 21 -74 59 -137z"/>
<path d="M2009 2085 c11 -27 25 -85 32 -128 12 -70 11 -81 -3 -105 -10 -15
-28 -48 -42 -73 -30 -55 -119 -156 -147 -164 -25 -8 -24 -20 7 -60 14 -19 34
-56 44 -83 43 -114 34 -212 -25 -267 -22 -21 -34 -43 -37 -68 -2 -20 -1 -37 3
-37 13 0 125 88 165 131 60 63 110 146 141 236 24 69 27 93 28 203 0 102 -4
138 -22 195 -25 77 -80 177 -130 234 l-32 36 18 -50z m131 -314 c31 -186 -41
-412 -170 -536 l-30 -29 4 30 c2 16 7 50 11 76 9 58 -8 136 -46 207 -16 30
-29 60 -29 66 0 6 21 31 46 55 65 64 145 201 152 259 l5 46 22 -50 c12 -27 28
-83 35 -124z"/>
<path d="M1470 891 c0 -5 -13 -23 -30 -39 -47 -47 -37 -88 30 -122 41 -21 52
-46 24 -57 -8 -3 -20 -1 -27 6 -13 13 -57 15 -57 3 0 -12 39 -52 50 -52 6 0
10 -7 10 -15 0 -8 7 -15 15 -15 8 0 15 6 15 14 0 8 9 17 19 21 10 3 24 18 30
33 17 41 0 78 -46 99 -21 10 -39 26 -41 36 -5 24 26 34 41 13 10 -13 18 -15
37 -8 l24 9 -32 32 c-17 18 -32 37 -32 42 0 5 -7 9 -15 9 -8 0 -15 -4 -15 -9z"/>
<path d="M890 844 c0 -23 3 -25 25 -20 l25 6 0 -100 0 -100 26 0 25 0 -2 98
c-2 96 -1 97 22 97 17 0 25 6 27 23 3 21 0 22 -72 22 -75 0 -76 0 -76 -26z"/>
<path d="M1084 856 c-16 -12 -20 -30 -24 -120 l-5 -106 27 0 c25 0 27 3 22 30
-6 28 -5 30 25 30 29 0 30 -2 25 -30 -6 -27 -4 -30 20 -30 l26 0 0 100 c0 87
-3 103 -20 120 -23 23 -68 26 -96 6z m67 -72 c8 -47 5 -54 -27 -54 -21 0 -24
4 -24 38 0 69 40 82 51 16z"/>
<path d="M1251 809 c19 -62 19 -63 0 -121 l-20 -58 28 0 c25 0 29 4 35 40 6
40 26 47 26 10 0 -34 12 -50 37 -50 20 0 24 4 18 18 -30 75 -32 98 -14 158 10
32 19 60 19 62 0 1 -11 2 -25 2 -19 0 -26 -6 -31 -27 -13 -65 -21 -70 -30 -23
-8 38 -13 45 -36 48 l-26 3 19 -62z"/>
<path d="M1582 750 l3 -120 48 0 c40 0 47 3 47 20 0 15 -7 20 -25 20 -25 0
-25 0 -25 100 l0 100 -25 0 -25 0 2 -120z"/>
<path d="M1724 849 c-15 -17 -19 -36 -19 -100 0 -67 3 -82 22 -100 30 -30 80
-30 105 0 27 35 26 158 -3 195 -26 33 -77 36 -105 5z m71 -100 c0 -67 -2 -74
-20 -74 -18 0 -20 8 -23 69 -2 49 1 72 10 77 26 17 33 1 33 -72z"/>
<path d="M1864 854 c3 -9 6 -20 6 -25 0 -5 10 -8 21 -6 20 2 21 -2 20 -95 l-2
-98 25 0 26 0 0 100 0 100 25 -6 c22 -5 25 -3 25 20 0 26 -1 26 -76 26 -65 0
-75 -2 -70 -16z"/>
<path d="M2030 750 l0 -120 25 0 c21 0 25 5 25 30 0 25 4 30 25 30 21 0 25 -5
25 -30 0 -24 4 -30 23 -30 22 0 22 2 22 120 0 118 0 120 -22 120 -22 0 -23 -4
-23 -70 0 -68 -1 -70 -25 -70 -24 0 -25 2 -25 70 0 68 -1 70 -25 70 l-25 0 0
-120z"/>
</g>
</svg>
